<svg width="24" height="24" viewBox="0 0 24 24" fill="none" xmlns="http://www.w3.org/2000/svg">
<path d="M5.75 12C5.75 11.8281 5.78385 11.6667 5.85156 11.5156C5.91927 11.3646 6.00781 11.2344 6.11719 11.125C6.23177 11.0104 6.36458 10.9193 6.51562 10.8516C6.66667 10.7839 6.82812 10.75 7 10.75C7.17188 10.75 7.33333 10.7839 7.48438 10.8516C7.63542 10.9193 7.76562 11.0104 7.875 11.125C7.98958 11.2344 8.08073 11.3646 8.14844 11.5156C8.21615 11.6667 8.25 11.8281 8.25 12C8.25 12.1719 8.21615 12.3333 8.14844 12.4844C8.08073 12.6354 7.98958 12.7682 7.875 12.8828C7.76562 12.9922 7.63542 13.0807 7.48438 13.1484C7.33333 13.2161 7.17188 13.25 7 13.25C6.82812 13.25 6.66667 13.2161 6.51562 13.1484C6.36458 13.0807 6.23177 12.9922 6.11719 12.8828C6.00781 12.7682 5.91927 12.6354 5.85156 12.4844C5.78385 12.3333 5.75 12.1719 5.75 12ZM10.75 12C10.75 11.8281 10.7839 11.6667 10.8516 11.5156C10.9193 11.3646 11.0078 11.2344 11.1172 11.125C11.2318 11.0104 11.3646 10.9193 11.5156 10.8516C11.6667 10.7839 11.8281 10.75 12 10.75C12.1719 10.75 12.3333 10.7839 12.4844 10.8516C12.6354 10.9193 12.7656 11.0104 12.875 11.125C12.9896 11.2344 13.0807 11.3646 13.1484 11.5156C13.2161 11.6667 13.25 11.8281 13.25 12C13.25 12.1719 13.2161 12.3333 13.1484 12.4844C13.0807 12.6354 12.9896 12.7682 12.875 12.8828C12.7656 12.9922 12.6354 13.0807 12.4844 13.1484C12.3333 13.2161 12.1719 13.25 12 13.25C11.8281 13.25 11.6667 13.2161 11.5156 13.1484C11.3646 13.0807 11.2318 12.9922 11.1172 12.8828C11.0078 12.7682 10.9193 12.6354 10.8516 12.4844C10.7839 12.3333 10.75 12.1719 10.75 12ZM15.75 12C15.75 11.8281 15.7839 11.6667 15.8516 11.5156C15.9193 11.3646 16.0078 11.2344 16.1172 11.125C16.2318 11.0104 16.3646 10.9193 16.5156 10.8516C16.6667 10.7839 16.8281 10.75 17 10.75C17.1719 10.75 17.3333 10.7839 17.4844 10.8516C17.6354 10.9193 17.7656 11.0104 17.875 11.125C17.9896 11.2344 18.0807 11.3646 18.1484 11.5156C18.2161 11.6667 18.25 11.8281 18.25 12C18.25 12.1719 18.2161 12.3333 18.1484 12.4844C18.0807 12.6354 17.9896 12.7682 17.875 12.8828C17.7656 12.9922 17.6354 13.0807 17.4844 13.1484C17.3333 13.2161 17.1719 13.25 17 13.25C16.8281 13.25 16.6667 13.2161 16.5156 13.1484C16.3646 13.0807 16.2318 12.9922 16.1172 12.8828C16.0078 12.7682 15.9193 12.6354 15.8516 12.4844C15.7839 12.3333 15.75 12.1719 15.75 12Z" fill="white" fill-opacity="0.786"/>
</svg>
